<svg id="Calque_2" data-name="Calque 2" xmlns="http://www.w3.org/2000/svg" viewBox="0 0 507.49 124.27"><defs><style>.cls-1{fill:#fff;}.cls-2{fill:#0067b2;}.cls-3{fill:#009fe3;}.cls-4{fill:#d70926;}</style></defs><rect class="cls-1" x="1.83" y="1.83" width="503.84" height="120.62"/><path class="cls-2" d="M505.66,0H0V124.27H507.49V0Zm0,122.45H1.83V1.83H505.66Z"/><path class="cls-2" d="M39.6,54.85c0-30.14-29.66-29.1-29.66-37.3a1.3,1.3,0,0,1,.25-.7c.05-.07.13-.14.19-.21a3.76,3.76,0,0,1,.5-.45l.36-.22a6.44,6.44,0,0,1,.79-.4l.45-.2A12.11,12.11,0,0,1,13.69,15l.4-.13a42.14,42.14,0,0,1,4.41-1L22,13.26l3.05-.4c3.3-.4,7-.74,11-1l4.45-.29c1.57-.1,5.7-.32,6.15-.34L51.77,11c3.45-.14,11-.38,11.28-.38l5.47-.14c13.5-.31,26.85-.37,36.93-.37,5.56,0,14.27,0,14.74,0V4.44H4.66l0,91.19C16.9,90.33,39.6,69.19,39.6,54.85Z"/><path class="cls-2" d="M39.55,18.16c0,1.66,2.86,2.82,9.11,4.5,5.55,1.49,30.67,5.54,71.54,19.51v-30C85.14,12.13,39.55,12.13,39.55,18.16Z"/><path class="cls-3" d="M14.63,119.61c12.5-.06,24.58,0,24.58,0a96,96,0,0,0,7.33-13.55c8.91-21.35,13.2-48.13-3.35-66.71C61.4,65.39,32.7,101.07,14.63,119.61Z"/><path class="cls-3" d="M84.8,38.85c28.79,19.39,27.07,50.31,24.64,80.8,1.55,0,6,0,10.76,0V72.62A82.2,82.2,0,0,0,84.8,38.85Z"/><path class="cls-4" d="M41.94,74.08C53.42,51,41.86,34.58,28,28.41a31.79,31.79,0,0,1,6.53,6c3.54,4.17,6.74,10.43,6.74,19.5,0,15-13.27,26.55-17,30.16a137.66,137.66,0,0,1-19.58,15V117.6C11.89,111.67,32,94,41.94,74.08Z"/><path class="cls-4" d="M53.86,25.26c-2.18-.46-3.82-.82-5-1.09l.61.19c27,8.91,53.43,17.62,70.69,38.48V45.14c-14.44-6.69-32.11-11.77-54.86-17.36C60.67,26.7,56.81,25.88,53.86,25.26Z"/><path class="cls-2" d="M149.55,100.45V68.51h16c7.92,0,10.9,3.37,10.9,11.71,0,9-2,12-10.9,12h-7.54v8.18ZM163.9,84.86c3.36-.13,3.83-.51,3.83-4.64,0-3.28-.51-4.3-3.83-4.3h-5.84v8.94Z"/><path class="cls-2" d="M188.63,95l-1.58,5.5H178.2l9.57-31.94h12.95l9.71,31.94h-8.69L200.08,95Zm5.79-20h-.09l-3.87,13.83h7.92Z"/><path class="cls-2" d="M242.35,68.51V89.8c0,8.52-4,10.9-13.37,10.9-12.77,0-14.13-3.24-14.13-10.9V68.51h8.51V89.63c0,3.62,2,3.66,5.62,3.66s4.85-.3,4.85-4V68.51Z"/><path class="cls-2" d="M258.22,93h13.33v7.41H249.71V68.51h8.51Z"/><path class="cls-2" d="M294.4,68.51h16.44c7.36.13,11,1.7,11,9.67,0,5.32,0,8.43-6.05,9.83v.34c3.5.13,5.75,2.05,5.75,5.67v6.43H313V96c.08-2.39-.94-4-3.49-4h-6.6v8.48H294.4Zm15.12,16.06c3.66,0,3.53-1.37,3.53-5,0-2.85-.72-3.66-3.53-3.66h-6.6v8.65Z"/><path class="cls-2" d="M337,100.45h-8.52V68.51H337Z"/><path class="cls-2" d="M371.45,88.35v.94c0,3.49,0,6.64-2.94,9.07s-6.43,2.34-10.13,2.34c-8.68,0-15-.42-15-12.09V80.35c0-10.56,5.66-12.09,15-12.09,8.77,0,12.86.89,13,10.47V80h-8.77V78.73c-.3-2.85-2.3-3.07-5.19-3.07-4.86,0-5.33,1.49-5.33,6v5c0,4.77.21,6.6,5.33,6.6,3.53,0,5.23-.25,5.23-4v-.94Z"/><path class="cls-2" d="M385,95l-1.58,5.5H374.6l9.57-31.94h12.95l9.71,31.94h-8.69L396.48,95Zm5.79-20h-.09l-3.87,13.83h7.92Z"/><path class="cls-2" d="M411,68.51h16.44c7.36.13,11,1.7,11,9.67,0,5.32,0,8.43-6.05,9.83v.34c3.5.13,5.75,2.05,5.75,5.67v6.43H429.6V96c.08-2.39-.94-4-3.49-4h-6.6v8.48H411Zm15.12,16.06c3.66,0,3.53-1.37,3.53-5,0-2.85-.72-3.66-3.53-3.66h-6.6v8.65Z"/><path class="cls-2" d="M444.62,68.51H460.8c8.9,0,12.85,3.32,12.85,12.39v6.69c0,8.73-2.81,12.86-11.7,12.86H444.62ZM453.13,93h7.45c3.15,0,4.3-2.09,4.3-5.45V80.9c0-4.13-1.32-5-4.3-5h-7.45Z"/><path class="cls-2" d="M149.53,34.56c0-6.17,2.09-9.13,8.7-9.13h12.64c6,0,7.65,2.8,7.65,6.07v2.09h-2.9V32.48c0-4.15-2.56-4.35-5.59-4.35H158.56c-3.17,0-5.73.94-5.73,5.19v9.17c0,4.25,2.56,5.19,5.73,5.19h11.57c4.45,0,5.73-.94,5.73-4.25V41.92H179v1.65c0,4.41-1.41,6.81-8.26,6.81H158.23c-6.61,0-8.7-3-8.7-9.14Z"/><path class="cls-2" d="M208,25.7h3.3V50.11H208Z"/><path class="cls-2" d="M241.27,25.7h19.52c7,0,8.16,2.33,8.16,6.91v2C269,38,267,39,264.47,39.22v.07c3.37.6,4.18,2.36,4.18,4.58v6.24h-3.11V44.75c0-3.81-1.85-4.28-4.85-4.28H244.57v9.64h-3.3Zm19.15,12.07c3.68,0,5.23-1,5.23-3.54V32c0-2.73-1.18-3.61-6-3.61h-15v9.38Z"/><path class="cls-2" d="M297.71,34.56c0-6.17,2.09-9.13,8.7-9.13h12.64c6,0,7.66,2.8,7.66,6.07v2.09h-2.9V32.48c0-4.15-2.56-4.35-5.6-4.35H306.75c-3.17,0-5.73.94-5.73,5.19v9.17c0,4.25,2.56,5.19,5.73,5.19h11.56c4.45,0,5.74-.94,5.74-4.25V41.92h3.1v1.65c0,4.42-1.42,6.81-8.26,6.81H306.41c-6.61,0-8.7-3-8.7-9.14Z"/><path class="cls-2" d="M356.08,25.7h3.3V43.94c0,2.36.81,3.74,5.29,3.74h11.47c4.48,0,5.29-1.38,5.29-3.74V25.7h3.31V44c0,5-2.5,6.41-8.7,6.41H364.78c-6.21,0-8.7-1.45-8.7-6.41Z"/><path class="cls-2" d="M414.91,25.7h3.31V50.11h-3.31Z"/><path class="cls-2" d="M458.07,28.39H445.73V25.7h28v2.69H461.37V50.11h-3.3Z"/></svg>